<svg id="Capa_1" enable-background="new 0 0 512 512" height="512" viewBox="0 0 512 512" width="512" xmlns="http://www.w3.org/2000/svg"><g><path d="m416.293 148.194c-34.923-38.166-81.876-62.454-132.835-68.891v-14.718h3.481c16.26 0 30.03-12.149 32.028-28.236.173-1.354.26-2.718.26-4.052 0-8.627-3.357-16.736-9.454-22.833-6.103-6.103-14.212-9.464-22.834-9.464h-15.72c-4.137 0-7.49 3.354-7.49 7.49s3.354 7.49 7.49 7.49h15.72c4.619 0 8.967 1.803 12.241 5.077 3.267 3.267 5.067 7.615 5.067 12.24 0 .704-.047 1.431-.143 2.183-1.071 8.622-8.45 15.124-17.165 15.124h-4.021c-1.046-5.189-3.758-10.192-7.511-13.925-5.189-5.189-12.085-8.047-19.418-8.047-7.326 0-14.219 2.858-19.407 8.046-3.767 3.767-6.454 8.695-7.5 13.925-10.268 1.132-21.936-3.424-23.397-15.147-.093-.727-.139-1.454-.139-2.16 0-9.549 7.769-17.317 17.317-17.317h15.709c4.137 0 7.49-3.354 7.49-7.49s-3.353-7.489-7.489-7.489h-15.709c-17.809 0-32.298 14.489-32.298 32.298 0 1.337.087 2.701.257 4.032.879 7.06 4.144 13.734 9.203 18.807 6.106 6.093 14.217 9.449 22.837 9.449h5.667v14.714c-27.174 3.42-53.101 11.837-77.158 25.085-25.352 13.963-47.366 32.554-65.429 55.257-2.575 3.237-2.039 7.949 1.198 10.525 3.237 2.575 7.949 2.04 10.525-1.198 34.051-42.797 84.636-70.3 138.834-75.49 13.25-.838 25.535-.833 39.002.002 104.192 9.966 182.733 96.463 182.733 201.304 0 111.513-90.723 202.235-202.235 202.235s-202.235-90.723-202.235-202.236c0-16.132 1.908-32.188 5.676-47.74 3.661-15.278 9.242-29.637 16.163-43.745.483-.947.976-1.894 1.478-2.841 1.936-3.655.543-8.189-3.112-10.125-3.658-1.937-8.189-.544-10.125 3.112-.547 1.033-1.084 2.066-1.611 3.098-7.543 15.085-13.426 30.585-17.356 46.991-4.043 16.688-6.093 33.93-6.093 51.249 0 58.02 22.594 112.568 63.621 153.595 41.026 41.028 95.574 63.622 153.594 63.622s112.568-22.594 153.595-63.621c41.026-41.027 63.621-95.575 63.621-153.595 0-54.414-20.215-106.474-56.923-146.59zm-149.867-70.375c-7.639-.367-15.278-.33-22.915.109v-20.717c.08-5.118 1.079-9.459 5.517-12.466 2.623-1.666 5.368-2.355 8.233-2.066 6.084.61 11.218 5.793 11.218 12.42v22.826c-.692-.039-1.38-.076-2.053-.106z"/><path d="m177.044 373.735c2.521 2.181 5.208 2.736 8.061 1.665l44.596-17.712 19.434 44.272c1.195 2.722 3.886 4.479 6.859 4.479s5.663-1.757 6.859-4.479l19.435-44.274c23.218 9.225 44.595 17.715 44.595 17.715 2.779 1.103 5.947.449 8.061-1.665s2.768-5.283 1.665-8.061l-17.808-44.843 44.428-19.963c2.711-1.219 4.445-3.925 4.419-6.897-.025-2.973-1.807-5.648-4.538-6.82l-44.114-18.909 17.613-44.346c1.104-2.779.449-5.947-1.665-8.061-2.113-2.113-5.283-2.769-8.061-1.665l-44.596 17.712-19.434-44.272c-1.195-2.722-3.886-4.479-6.859-4.479s-5.663 1.757-6.859 4.479l-19.435 44.274-44.594-17.715c-2.78-1.103-5.948-.449-8.062 1.665s-2.768 5.283-1.665 8.062c0 0 8.43 21.22 17.587 44.281l-46.269 19.716c-2.762 1.177-4.554 3.889-4.554 6.891s1.792 5.714 4.554 6.891l46.27 19.716-17.588 44.281c-1.103 2.779-.449 5.948 1.665 8.062zm49.929-97.378 47.45 47.45-78.713 31.263zm114.551 17.841-35.399 15.906c-3.655 1.643-5.37 5.872-3.891 9.597l14.047 35.369c-9.613-3.818-22.401-8.898-35.179-13.975-3.749-1.491-8.003.257-9.625 3.95l-15.482 35.269-12.361-28.16 46.905-18.629c1.834-.734 3.48-2.335 4.196-4.196l18.73-47.158zm-56.509 19.016-47.45-47.45 78.713-31.263zm-116.275-18.429 36.82-15.689c3.739-1.594 5.525-5.878 4.025-9.655-5.034-12.681-10.077-25.377-13.874-34.939l35.177 13.974c3.751 1.49 8.003-.257 9.624-3.95l15.482-35.269 12.361 28.16-46.904 18.629c-1.888.764-3.42 2.319-4.196 4.196l-18.756 47.224z"/><path d="m327.946 456.798c4-1.837 7.808-3.755 11.007-5.389.037-.019.073-.038.109-.057 11.246-5.979 21.907-13.23 31.689-21.552 6.834-5.817 13.122-12.045 19.013-18.815 28.054-32.256 43.504-73.523 43.504-116.2 0-46.907-18.182-91.072-51.208-124.499-.443-.617-.974-1.145-1.593-1.586-33.413-33.011-77.567-51.183-124.477-51.183-46.893 0-91.039 18.168-124.45 51.169-.643.455-1.192 1.005-1.647 1.648-32.96 33.386-51.12 77.471-51.159 124.299-.001.051-.008.101-.008.153s.007.102.008.153c.04 46.826 18.198 90.909 51.155 124.293.458.648 1.01 1.2 1.658 1.658 33.404 32.99 77.533 51.154 124.421 51.162.009 0 .018.001.027.001.008 0 .016-.001.024-.001 12.736-.001 25.437-1.366 37.753-4.057 4.041-.883 6.602-4.875 5.719-8.917-.884-4.042-4.873-6.601-8.917-5.719-8.858 1.935-17.939 3.109-27.089 3.528v-12.299c0-4.137-3.354-7.49-7.49-7.49-4.137 0-7.49 3.354-7.49 7.49v12.307c-37.991-1.721-73.647-16.52-101.785-42.244l8.644-8.644c2.925-2.925 2.925-7.668 0-10.593s-7.668-2.925-10.593 0l-8.643 8.643c-25.72-28.143-40.518-63.799-42.24-101.784h12.302c4.137 0 7.49-3.354 7.49-7.49s-3.354-7.49-7.49-7.49h-12.302c1.722-37.984 16.518-73.64 42.239-101.784l8.643 8.643c1.462 1.462 3.379 2.194 5.296 2.194s3.834-.731 5.296-2.194c2.925-2.925 2.925-7.668 0-10.593l-8.645-8.645c28.134-25.723 63.789-40.522 101.785-42.245v12.309c0 4.137 3.354 7.49 7.49 7.49 4.137 0 7.49-3.354 7.49-7.49v-12.309c37.992 1.721 73.649 16.519 101.786 42.244l-8.645 8.645c-2.925 2.925-2.925 7.668 0 10.593 1.462 1.462 3.379 2.194 5.296 2.194s3.834-.731 5.296-2.194l8.648-8.648c25.726 28.145 40.525 63.801 42.247 101.789h-12.314c-4.137 0-7.49 3.354-7.49 7.49s3.354 7.49 7.49 7.49h12.314c-1.686 36.379-15.614 71.24-39.651 98.877-.856.984-1.735 1.938-2.61 2.897l-8.633-8.633c-2.925-2.925-7.668-2.925-10.593 0s-2.925 7.668 0 10.593l8.643 8.643c-1.393 1.272-2.801 2.526-4.226 3.739-8.943 7.61-18.687 14.24-28.961 19.707-3.049 1.557-6.662 3.376-10.389 5.088-3.759 1.727-5.406 6.174-3.68 9.933 1.729 3.761 6.176 5.407 9.936 3.682z"/></g></svg>