<?xml version="1.0" encoding="utf-8"?>
<!-- Generator: Adobe Illustrator 24.3.0, SVG Export Plug-In . SVG Version: 6.00 Build 0)  -->
<svg version="1.1" id="Layer_1" xmlns="http://www.w3.org/2000/svg" xmlns:xlink="http://www.w3.org/1999/xlink" x="0px" y="0px"
	 viewBox="0 0 128 128" style="enable-background:new 0 0 128 128;" xml:space="preserve">
<style type="text/css">
	.st0{fill:#FFFFFF;}
	.st1{fill:#BCE7FF;}
	.st2{fill:#A0BB61;}
	.st3{fill:#232F5A;}
	.st4{fill:none;stroke:#000000;stroke-width:2;stroke-miterlimit:10;}
</style>
<g>
	<g>
		<circle class="st0" cx="64" cy="64" r="49.5"/>
		<g>
			<path d="M64,15c27.02,0,49,21.98,49,49s-21.98,49-49,49S15,91.02,15,64S36.98,15,64,15 M64,14c-27.61,0-50,22.39-50,50
				s22.39,50,50,50s50-22.39,50-50S91.61,14,64,14L64,14z"/>
		</g>
	</g>
	<g>
		<path class="st1" d="M50,96.5c-5.24,0-9.5-4.26-9.5-9.5V58.5h47V87c0,5.24-4.26,9.5-9.5,9.5H50z"/>
		<g>
			<path d="M87,59v28c0,4.96-4.04,9-9,9H50c-4.96,0-9-4.04-9-9V59H87 M87.86,58H40v29c0,5.52,4.48,10,10,10h28c5.52,0,10-4.48,10-10
				V58.14C88,58.06,87.94,58,87.86,58L87.86,58z"/>
		</g>
	</g>
	<g>
		<path class="st2" d="M42.24,52.5c-3.17,0-5.74-2.58-5.74-5.74v-2.51c0-3.17,2.58-5.74,5.74-5.74h42.51c3.17,0,5.75,2.58,5.75,5.74
			v2.51c0,3.17-2.58,5.74-5.75,5.74H42.24z"/>
		<path d="M84.76,39c2.89,0,5.24,2.35,5.24,5.24v2.51c0,2.89-2.35,5.24-5.24,5.24H42.24C39.35,52,37,49.65,37,46.76v-2.51
			c0-2.89,2.35-5.24,5.24-5.24H84.76 M84.76,38H42.24C38.8,38,36,40.8,36,44.24v2.51C36,50.2,38.8,53,42.24,53h42.51
			C88.2,53,91,50.2,91,46.76v-2.51C91,40.8,88.2,38,84.76,38L84.76,38z"/>
	</g>
	<g>
		<path class="st2" d="M40.5,87.49c-5.01-0.26-9-4.42-9-9.49v-1.47c0-2.77,2.26-5.03,5.03-5.03h3.97V87.49z"/>
		<path d="M40,72l0,14.94c-4.49-0.5-8-4.32-8-8.94v-1.47c0-2.5,2.03-4.53,4.53-4.53H40 M41,71h-4.47C33.48,71,31,73.48,31,76.53V78
			c0,5.52,4.48,10,10,10h0V71L41,71z"/>
	</g>
	<g>
		<path class="st2" d="M87.5,71.5h3.97c2.77,0,5.03,2.26,5.03,5.03V78c0,5.07-3.99,9.23-9,9.49V71.5z"/>
		<path d="M91.47,72c2.5,0,4.53,2.03,4.53,4.53V78c0,4.62-3.51,8.45-8,8.94V72H91.47 M91.47,71H87v17h0c5.52,0,10-4.48,10-10v-1.47
			C97,73.48,94.52,71,91.47,71L91.47,71z"/>
	</g>
	<g>
		<path class="st3" d="M47,67.5c-3.58,0-6.5-2.92-6.5-6.5v-2c0-3.58,2.92-6.5,6.5-6.5h34c3.58,0,6.5,2.92,6.5,6.5v2
			c0,3.58-2.92,6.5-6.5,6.5H47z"/>
		<path d="M81,53c3.31,0,6,2.69,6,6v2c0,3.31-2.69,6-6,6H47c-3.31,0-6-2.69-6-6v-2c0-3.31,2.69-6,6-6H81 M81,52H47
			c-3.87,0-7,3.13-7,7v2c0,3.87,3.13,7,7,7h34c3.87,0,7-3.13,7-7v-2C88,55.13,84.87,52,81,52L81,52z"/>
	</g>
	<g>
		<path class="st3" d="M55,87.5c-2.48,0-4.5-2.02-4.5-4.5v-7c0-2.48,2.02-4.5,4.5-4.5h17c2.48,0,4.5,2.02,4.5,4.5v7
			c0,2.48-2.02,4.5-4.5,4.5H55z"/>
		<g>
			<path d="M72,72c2.21,0,4,1.79,4,4v7c0,2.21-1.79,4-4,4H55c-2.21,0-4-1.79-4-4v-7c0-2.21,1.79-4,4-4H72 M72,71H55
				c-2.76,0-5,2.24-5,5v7c0,2.76,2.24,5,5,5h17c2.76,0,5-2.24,5-5v-7C77,73.24,74.76,71,72,71L72,71z"/>
		</g>
	</g>
	<g>
		<path class="st2" d="M69,78.5c-0.83,0-1.5-0.67-1.5-1.5V62.5h4V77c0,0.83-0.67,1.5-1.5,1.5H69z"/>
		<g>
			<path d="M71,63v14c0,0.55-0.45,1-1,1h-1c-0.55,0-1-0.45-1-1V63H71 M72,62h-5v15c0,1.1,0.9,2,2,2h1c1.1,0,2-0.9,2-2V62L72,62z"/>
		</g>
	</g>
	<g>
		<path class="st2" d="M58,78.5c-0.83,0-1.5-0.67-1.5-1.5V62.5h4V77c0,0.83-0.67,1.5-1.5,1.5H58z"/>
		<g>
			<path d="M60,63v14c0,0.55-0.45,1-1,1h-1c-0.55,0-1-0.45-1-1V63H60 M61,62h-5v15c0,1.1,0.9,2,2,2h1c1.1,0,2-0.9,2-2V62L61,62z"/>
		</g>
	</g>
	<g>
		<rect x="46.5" y="38.5" class="st3" width="4" height="14"/>
		<g>
			<path d="M50,39v13h-3V39H50 M51,38h-5v15h5V38L51,38z"/>
		</g>
	</g>
	<g>
		<rect x="76.5" y="38.5" class="st3" width="4" height="14"/>
		<g>
			<path d="M80,39v13h-3V39H80 M81,38h-5v15h5V38L81,38z"/>
		</g>
	</g>
	<path class="st4" d="M56,38c0-3.31,3.81-6,8.5-6s8.5,2.69,8.5,6"/>
</g>
</svg>
