<?xml version="1.0" encoding="utf-8"?>
<!-- Generator: Adobe Illustrator 24.3.0, SVG Export Plug-In . SVG Version: 6.00 Build 0)  -->
<svg version="1.1" id="Layer_1" xmlns="http://www.w3.org/2000/svg" xmlns:xlink="http://www.w3.org/1999/xlink" x="0px" y="0px"
	 viewBox="0 0 128 128" style="enable-background:new 0 0 128 128;" xml:space="preserve">
<style type="text/css">
	.st0{fill:#FFFFFF;}
	.st1{fill:#BCE7FF;}
	.st2{fill:#A0BB61;}
	.st3{fill:#232F5A;}
	.st4{fill:none;stroke:#000000;stroke-width:2;stroke-miterlimit:10;}
</style>
<g>
	<g>
		<circle class="st0" cx="64" cy="64" r="62"/>
		<path class="st0" d="M64,2.5c33.91,0,61.5,27.59,61.5,61.5S97.91,125.5,64,125.5S2.5,97.91,2.5,64S30.09,2.5,64,2.5 M64,1.5
			C29.48,1.5,1.5,29.48,1.5,64s27.98,62.5,62.5,62.5s62.5-27.98,62.5-62.5S98.52,1.5,64,1.5L64,1.5z"/>
	</g>
	<g>
		<path class="st1" d="M44,104.75c-5.24,0-9.5-4.26-9.5-9.5V57h59v38.25c0,5.24-4.26,9.5-9.5,9.5H44z"/>
		<g>
			<path d="M93,57.5v37.75c0,4.96-4.04,9-9,9H44c-4.96,0-9-4.04-9-9V57.5H93 M93.86,56.5H34v38.75c0,5.52,4.48,10,10,10h40
				c5.52,0,10-4.48,10-10V56.64C94,56.56,93.94,56.5,93.86,56.5L93.86,56.5z"/>
		</g>
	</g>
	<g>
		<path class="st2" d="M35.24,49.75c-3.17,0-5.74-2.58-5.74-5.74v-6.26c0-3.17,2.58-5.74,5.74-5.74H91.5c3.17,0,5.75,2.58,5.75,5.74
			v6.26c0,3.17-2.58,5.74-5.75,5.74H35.24z"/>
		<path d="M91.51,32.5c2.89,0,5.24,2.35,5.24,5.24v6.26c0,2.89-2.35,5.24-5.24,5.24H35.24c-2.89,0-5.24-2.35-5.24-5.24v-6.26
			c0-2.89,2.35-5.24,5.24-5.24H91.51 M91.51,31.5H35.24c-3.45,0-6.24,2.8-6.24,6.24v6.26c0,3.45,2.8,6.24,6.24,6.24h56.26
			c3.45,0,6.24-2.8,6.24-6.24v-6.26C97.75,34.3,94.95,31.5,91.51,31.5L91.51,31.5z"/>
	</g>
	<g>
		<path class="st2" d="M32.75,93.5c-5.24,0-9.5-4.26-9.5-9.5v-5.72c0-2.77,2.26-5.03,5.03-5.03h6.47V93.5H32.75z"/>
		<path d="M34.25,73.75V93h-1.5c-4.96,0-9-4.04-9-9v-5.72c0-2.5,2.03-4.53,4.53-4.53H34.25 M35.25,72.75h-6.97
			c-3.06,0-5.53,2.48-5.53,5.53V84c0,5.52,4.48,10,10,10h2.5V72.75L35.25,72.75z"/>
	</g>
	<g>
		<path class="st2" d="M93.25,93.5V73.25h6.47c2.77,0,5.03,2.26,5.03,5.03V84c0,5.24-4.26,9.5-9.5,9.5H93.25z"/>
		<path d="M99.72,73.75c2.5,0,4.53,2.03,4.53,4.53V84c0,4.96-4.04,9-9,9h-1.5V73.75H99.72 M99.72,72.75h-6.97V94h2.5
			c5.52,0,10-4.48,10-10v-5.72C105.25,75.23,102.77,72.75,99.72,72.75L99.72,72.75z"/>
	</g>
	<g>
		<path class="st3" d="M41,68.5c-3.58,0-6.5-2.92-6.5-6.5v-6c0-3.58,2.92-6.5,6.5-6.5h46c3.58,0,6.5,2.92,6.5,6.5v6
			c0,3.58-2.92,6.5-6.5,6.5H41z"/>
		<path d="M87,50c3.31,0,6,2.69,6,6v6c0,3.31-2.69,6-6,6H41c-3.31,0-6-2.69-6-6v-6c0-3.31,2.69-6,6-6H87 M87,49H41
			c-3.87,0-7,3.13-7,7v6c0,3.87,3.13,7,7,7h46c3.87,0,7-3.13,7-7v-6C94,52.13,90.87,49,87,49L87,49z"/>
	</g>
	<g>
		<path class="st3" d="M51.5,93.5c-2.48,0-4.5-2.02-4.5-4.5V77.75c0-2.48,2.02-4.5,4.5-4.5h23.75c2.48,0,4.5,2.02,4.5,4.5V89
			c0,2.48-2.02,4.5-4.5,4.5H51.5z"/>
		<g>
			<path d="M75.25,73.75c2.21,0,4,1.79,4,4V89c0,2.21-1.79,4-4,4H51.5c-2.21,0-4-1.79-4-4V77.75c0-2.21,1.79-4,4-4H75.25
				 M75.25,72.75H51.5c-2.76,0-5,2.24-5,5V89c0,2.76,2.24,5,5,5h23.75c2.76,0,5-2.24,5-5V77.75C80.25,74.99,78.01,72.75,75.25,72.75
				L75.25,72.75z"/>
		</g>
	</g>
	<g>
		<path class="st2" d="M69.75,82.25c-0.83,0-1.5-0.67-1.5-1.5V62h5.25v18.75c0,0.83-0.67,1.5-1.5,1.5H69.75z"/>
		<g>
			<path d="M73,62.5v18.25c0,0.55-0.45,1-1,1h-2.25c-0.55,0-1-0.45-1-1V62.5H73 M74,61.5h-6.25v19.25c0,1.1,0.9,2,2,2H72
				c1.1,0,2-0.9,2-2V61.5L74,61.5z"/>
		</g>
	</g>
	<g>
		<path class="st2" d="M56,82.25c-0.83,0-1.5-0.67-1.5-1.5V62h5.25v18.75c0,0.83-0.67,1.5-1.5,1.5H56z"/>
		<g>
			<path d="M59.25,62.5v18.25c0,0.55-0.45,1-1,1H56c-0.55,0-1-0.45-1-1V62.5H59.25 M60.25,61.5H54v19.25c0,1.1,0.9,2,2,2h2.25
				c1.1,0,2-0.9,2-2V61.5L60.25,61.5z"/>
		</g>
	</g>
	<g>
		<rect x="42" y="32" class="st3" width="5.25" height="17.75"/>
		<g>
			<path d="M46.75,32.5v16.75H42.5V32.5H46.75 M47.75,31.5H41.5v18.75h6.25V31.5L47.75,31.5z"/>
		</g>
	</g>
	<g>
		<rect x="79.5" y="32" class="st3" width="5.25" height="17.75"/>
		<g>
			<path d="M84.25,32.5v16.75H80V32.5H84.25 M85.25,31.5H79v18.75h6.25V31.5L85.25,31.5z"/>
		</g>
	</g>
	<path class="st4" d="M54,31.5c0-4.14,4.76-7.5,10.63-7.5s10.63,3.36,10.63,7.5"/>
</g>
</svg>
