<svg id="Capa_1" enable-background="new 0 0 512 512" height="512" viewBox="0 0 512 512" width="512" xmlns="http://www.w3.org/2000/svg"><g><path d="m472.85 207.526h-57.727l18.704-23.843c2.557-3.259 1.987-7.974-1.271-10.53-3.259-2.556-7.973-1.988-10.53 1.271l-57.597 73.424-57.521-73.328c-16.916-23.077-30.905-44.366-30.905-71.095 0-48.722 39.606-88.367 88.308-88.425.039 0 .078.001.117.001 48.758 0 88.425 39.668 88.425 88.425 0 13.813-3.662 27.048-11.525 41.649-1.964 3.647-.6 8.196 3.047 10.16 3.647 1.962 8.196.599 10.16-3.047 9.086-16.873 13.318-32.367 13.318-48.761 0-56.99-46.336-103.362-103.313-103.425-.041-.002-.083-.002-.125-.002-57.021 0-103.412 46.396-103.412 103.425 0 31.266 16.026 55.711 33.879 80.062.048.066.097.13.147.194l18.708 23.849h-80.821l-94.63-41.219c-.928-.411-1.952-.644-3.033-.644-1.077 0-2.098.231-3.023.64l-96.072 41.848c-2.736 1.191-4.505 3.892-4.505 6.876v180.44c0 4.142 3.358 7.5 7.5 7.5s7.5-3.358 7.5-7.5v-53.9l81.1-38.21v51.807 33.769 68.776l-81.103 35.335v-65.251c0-4.142-3.358-7.5-7.5-7.5s-7.5 3.358-7.5 7.5v76.7c0 2.529 1.274 4.888 3.39 6.273 1.24.813 2.671 1.227 4.11 1.227 1.016 0 2.036-.206 2.995-.625l93.104-40.564 93.104 40.564c.945.412 1.965.625 2.996.625h1.025c.023 0 .045.003.068.003s.045-.003.068-.003h157.41 32.04 50.89c4.142 0 7.5-3.358 7.5-7.5v-74-30.66-62.84-30.66-91.31c0-4.143-3.358-7.501-7.5-7.501zm-7.5 184.81h-112.18v-47.84h112.18zm0-169.81v76.31h-78.09v-55.791l16.096-20.52h61.994zm-123.75 20.523v55.787h-101.657v-76.306h85.068c.16 0 .317-.014.474-.024zm-198.846 123.514 82.186 35.403v17.437l-82.186-35.403zm82.189-60.275c0 .016-.002.032-.002.048v18.706l-82.186-38.287v-18.854l82.188 38.289zm0-16.645-82.188-38.289v-66.736l82.188 35.8zm0 51.949v44.043l-82.188-35.404v-46.927zm-82.189 58.741 82.188 35.404v57.787l-82.188-35.809zm97.189-55.836h67.557v47.84h-67.557zm-193.289-124.554 81.1-35.326v66.759l-81.1 38.21zm.001 105.045v-18.82l81.1-38.21v18.82zm348.234 172.009-29.403-69.425c-1.175-2.773-3.895-4.575-6.906-4.575h-42.02c-4.142 0-7.5 3.358-7.5 7.5s3.358 7.5 7.5 7.5h37.051l24.988 59h-138.656v-59h43.927c4.142 0 7.5-3.358 7.5-7.5s-3.358-7.5-7.5-7.5h-43.927v-15.66h75.057c4.142 0 7.5-3.358 7.5-7.5v-62.84c0-4.142-3.358-7.5-7.5-7.5h-75.057v-15.66h109.157c4.142 0 7.5-3.358 7.5-7.5v-44.165l1.928 2.458c1.421 1.813 3.597 2.871 5.901 2.871s4.479-1.059 5.901-2.871l1.931-2.461v44.169c0 4.142 3.358 7.5 7.5 7.5h85.59v15.66h-119.681c-4.142 0-7.5 3.358-7.5 7.5v62.84c0 4.142 3.358 7.5 7.5 7.5h119.68v15.66h-74.73c-2.516 0-4.863 1.261-6.252 3.358s-1.635 4.751-.654 7.067l26.925 63.575h-15.75zm32.04 0-24.988-59h63.409v59z"/><path d="m304.288 103.529c0 33.161 26.979 60.14 60.14 60.14s60.14-26.979 60.14-60.14-26.979-60.14-60.14-60.14-60.14 26.979-60.14 60.14zm105.281 0c0 24.89-20.25 45.14-45.14 45.14s-45.14-20.25-45.14-45.14 20.25-45.14 45.14-45.14 45.14 20.25 45.14 45.14z"/></g></svg>